<?xml version="1.0" encoding="utf-8"?>
<!-- Generator: Adobe Illustrator 26.5.0, SVG Export Plug-In . SVG Version: 6.00 Build 0)  -->
<svg version="1.1" id="Layer_1" xmlns="http://www.w3.org/2000/svg" xmlns:xlink="http://www.w3.org/1999/xlink" x="0px" y="0px"
	 viewBox="0 0 133 40.3" style="enable-background:new 0 0 133 40.3;" xml:space="preserve">
<style type="text/css">
	.st0{fill:#FFFFFF;}
	.st1{fill:#5BBB7B;}
</style>
<g>
	<path class="st0" d="M49.9,16.2v8.2c0,0.4,0,0.6,0.1,0.8c0.1,0.1,0.1,0.2,0.3,0.3s0.3,0.1,0.7,0.1v0.2h-3v-0.2c0.3,0,0.5,0,0.6-0.1
		s0.2-0.2,0.2-0.3c0.1-0.1,0.1-0.4,0.1-0.8v-5.6c0-0.7,0-1.1,0-1.3s-0.1-0.3-0.2-0.3s-0.3-0.1-0.4-0.1c-0.1,0-0.3,0-0.4,0.1L47.8,17
		l1.8-0.8H49.9z"/>
	<path class="st0" d="M53.7,19.5v5c0,0.4,0,0.6,0.1,0.8c0.1,0.1,0.1,0.2,0.2,0.3c0.1,0.1,0.3,0.1,0.6,0.1v0.2h-3v-0.2
		c0.3,0,0.5,0,0.6-0.1s0.2-0.2,0.2-0.3c0.1-0.1,0.1-0.4,0.1-0.8v-2.4c0-0.7,0-1.1-0.1-1.3c0-0.1-0.1-0.2-0.1-0.3
		c-0.1-0.1-0.2-0.1-0.3-0.1s-0.3,0-0.5,0.1l-0.1-0.2l1.9-0.8C53.3,19.5,53.7,19.5,53.7,19.5z M53.2,16.2c0.2,0,0.4,0.1,0.5,0.2
		s0.2,0.3,0.2,0.5s-0.1,0.4-0.2,0.5s-0.3,0.2-0.5,0.2s-0.4-0.1-0.5-0.2s-0.2-0.3-0.2-0.5s0.1-0.4,0.2-0.5
		C52.8,16.3,53,16.2,53.2,16.2z"/>
	<path class="st0" d="M57.2,17.6v2h1.4v0.5h-1.4v4c0,0.4,0.1,0.7,0.2,0.8c0.1,0.1,0.3,0.2,0.4,0.2c0.1,0,0.3,0,0.4-0.1
		s0.2-0.2,0.3-0.4h0.3c-0.2,0.4-0.4,0.8-0.7,1s-0.6,0.3-0.9,0.3c-0.2,0-0.4-0.1-0.6-0.2s-0.3-0.3-0.4-0.5c-0.1-0.2-0.1-0.5-0.1-1
		v-4.1h-1v-0.2c0.2-0.1,0.5-0.3,0.8-0.5s0.5-0.5,0.7-0.8c0.1-0.2,0.2-0.5,0.4-0.9h0.2C57.2,17.7,57.2,17.6,57.2,17.6z"/>
	<path class="st0" d="M60.3,22c0,0.9,0.2,1.6,0.7,2.2c0.5,0.5,1,0.8,1.6,0.8c0.4,0,0.8-0.1,1.1-0.3c0.3-0.2,0.6-0.6,0.8-1.1l0.2,0.1
		c-0.1,0.6-0.4,1.2-0.8,1.7c-0.5,0.5-1,0.8-1.7,0.8s-1.4-0.3-1.9-0.9s-0.8-1.4-0.8-2.3c0-1.1,0.3-1.9,0.8-2.5s1.2-0.9,2-0.9
		c0.7,0,1.3,0.2,1.7,0.7c0.4,0.5,0.7,1.1,0.7,1.8h-4.4C60.3,22.1,60.3,22,60.3,22z M60.3,21.6h2.9c0-0.4-0.1-0.7-0.1-0.8
		c-0.1-0.3-0.3-0.5-0.5-0.6S62.1,20,61.9,20c-0.4,0-0.7,0.1-1,0.4C60.6,20.7,60.4,21.1,60.3,21.6z"/>
	<path class="st0" d="M71.3,17.2v3.6h2c0.5,0,0.9-0.1,1-0.2c0.2-0.2,0.4-0.6,0.4-1.1H75v3.2h-0.2c-0.1-0.4-0.1-0.7-0.2-0.9
		c-0.1-0.2-0.2-0.3-0.4-0.4c-0.2-0.1-0.5-0.1-0.9-0.1h-2v3c0,0.4,0,0.7,0.1,0.7c0,0.1,0.1,0.2,0.2,0.2c0.1,0.1,0.3,0.1,0.5,0.1h1.6
		c0.5,0,0.9,0,1.1-0.1s0.5-0.2,0.7-0.4c0.3-0.3,0.6-0.7,0.9-1.3h0.3l-0.8,2.3h-7.1v-0.2h0.3c0.2,0,0.4-0.1,0.6-0.2
		c0.1-0.1,0.2-0.2,0.3-0.3c0.1-0.1,0.1-0.4,0.1-0.9v-5.9c0-0.6-0.1-0.9-0.2-1.1c-0.2-0.2-0.4-0.3-0.8-0.3h-0.3v-0.2h7.1l0.1,2h-0.3
		c-0.1-0.5-0.2-0.8-0.3-1c-0.1-0.2-0.3-0.3-0.5-0.4s-0.5-0.1-1-0.1C73.9,17.2,71.3,17.2,71.3,17.2z"/>
	<path class="st0" d="M77.1,19.7H80v0.2c-0.2,0-0.3,0-0.4,0.1s-0.1,0.1-0.1,0.2s0.1,0.3,0.2,0.5c0,0.1,0.1,0.2,0.2,0.3l0.4,0.7
		l0.5-0.7c0.3-0.4,0.5-0.7,0.5-0.8c0-0.1,0-0.2-0.1-0.2c-0.1-0.1-0.2-0.1-0.4-0.1v-0.2H83v0.2c-0.2,0-0.4,0.1-0.6,0.2
		c-0.2,0.2-0.5,0.5-0.9,1l-0.8,1.1l1.5,2.2c0.4,0.5,0.6,0.9,0.8,1c0.2,0.1,0.4,0.2,0.6,0.2v0.2h-2.9v-0.2c0.2,0,0.4,0,0.5-0.1
		s0.1-0.1,0.1-0.2s-0.1-0.4-0.4-0.8L80,23.1l-1,1.3c-0.3,0.4-0.5,0.7-0.5,0.7c0,0.1,0.1,0.2,0.2,0.3c0.1,0.1,0.3,0.1,0.5,0.1v0.2h-2
		v-0.2c0.2,0,0.3-0.1,0.4-0.2c0.2-0.1,0.5-0.5,0.9-1l1.3-1.7l-1.2-1.7c-0.3-0.5-0.6-0.8-0.8-0.9C77.6,19.9,77.4,19.8,77.1,19.7
		C77.1,19.8,77.1,19.7,77.1,19.7z"/>
	<path class="st0" d="M89.5,23.5c-0.2,0.8-0.5,1.4-1,1.9c-0.5,0.4-1,0.7-1.6,0.7c-0.7,0-1.3-0.3-1.8-0.9s-0.8-1.4-0.8-2.4
		s0.3-1.8,0.9-2.4s1.3-0.9,2.1-0.9c0.6,0,1.1,0.2,1.5,0.5s0.6,0.7,0.6,1c0,0.2-0.1,0.3-0.2,0.4s-0.3,0.2-0.5,0.2
		c-0.3,0-0.5-0.1-0.6-0.3C88,21.2,88,21,88,20.7s-0.1-0.5-0.3-0.6c-0.2-0.1-0.4-0.2-0.7-0.2c-0.5,0-0.8,0.2-1.1,0.5
		c-0.4,0.4-0.5,1-0.5,1.7s0.2,1.4,0.5,2s0.9,0.8,1.5,0.8c0.4,0,0.8-0.2,1.2-0.5c0.2-0.2,0.5-0.6,0.7-1.1L89.5,23.5z"/>
	<path class="st0" d="M92.2,16.2v4.5c0.5-0.5,0.9-0.9,1.2-1.1c0.3-0.2,0.6-0.2,0.9-0.2c0.4,0,0.7,0.1,0.9,0.3
		c0.3,0.2,0.4,0.5,0.6,0.9c0.1,0.3,0.1,0.8,0.1,1.6v2.2c0,0.4,0,0.7,0.1,0.8c0,0.1,0.1,0.2,0.2,0.3c0.1,0.1,0.3,0.1,0.6,0.1v0.2h-3
		v-0.2h0.1c0.3,0,0.5,0,0.6-0.1s0.2-0.2,0.2-0.4c0-0.1,0-0.3,0-0.6v-2.2c0-0.7,0-1.1-0.1-1.3s-0.2-0.4-0.3-0.5
		c-0.2-0.1-0.3-0.2-0.6-0.2c-0.2,0-0.5,0.1-0.7,0.2s-0.5,0.4-0.9,0.7v3.3c0,0.4,0,0.7,0.1,0.8c0,0.1,0.1,0.2,0.3,0.3
		c0.1,0.1,0.4,0.1,0.7,0.1v0.2h-3.1v-0.2c0.3,0,0.5,0,0.6-0.1c0.1,0,0.2-0.1,0.2-0.3c0.1-0.1,0.1-0.4,0.1-0.8v-5.6
		c0-0.7,0-1.1-0.1-1.3s-0.1-0.3-0.2-0.3s0-0.2-0.1-0.2s-0.2,0-0.5,0.1L90,17l1.9-0.8H92.2z"/>
	<path class="st0" d="M100.8,25c-0.6,0.5-1,0.8-1.2,0.9s-0.5,0.2-0.8,0.2c-0.4,0-0.8-0.1-1.1-0.4c-0.3-0.3-0.4-0.7-0.4-1.2
		c0-0.3,0.1-0.6,0.2-0.8c0.2-0.3,0.5-0.6,1-0.9s1.2-0.6,2.3-1v-0.2c0-0.6-0.1-1-0.3-1.3c-0.2-0.2-0.5-0.3-0.9-0.3
		c-0.3,0-0.5,0.1-0.7,0.2c-0.2,0.2-0.3,0.3-0.3,0.5v0.4c0,0.2-0.1,0.4-0.2,0.5s-0.2,0.2-0.4,0.2c-0.2,0-0.3-0.1-0.4-0.2
		s-0.2-0.3-0.2-0.5c0-0.4,0.2-0.7,0.6-1.1c0.4-0.3,1-0.5,1.7-0.5c0.5,0,1,0.1,1.4,0.3c0.3,0.1,0.5,0.4,0.6,0.7
		c0.1,0.2,0.1,0.6,0.1,1.2v2.1c0,0.6,0,1,0,1.1s0.1,0.2,0.1,0.3c0.1,0,0.1,0.1,0.2,0.1s0.1,0,0.2,0c0.1-0.1,0.3-0.2,0.5-0.5v0.4
		c-0.5,0.7-1,1-1.4,1c-0.2,0-0.4-0.1-0.5-0.2C100.9,25.6,100.8,25.3,100.8,25z M100.8,24.5v-2.4c-0.7,0.3-1.1,0.5-1.3,0.6
		c-0.4,0.2-0.6,0.4-0.8,0.6c-0.2,0.2-0.2,0.5-0.2,0.7c0,0.3,0.1,0.6,0.3,0.8c0.2,0.2,0.4,0.3,0.7,0.3C99.8,25.2,100.3,25,100.8,24.5
		z"/>
	<path class="st0" d="M105.3,20.8c0.7-0.9,1.4-1.3,2.1-1.3c0.3,0,0.6,0.1,0.9,0.3s0.4,0.4,0.6,0.8c0.1,0.3,0.1,0.7,0.1,1.2v2.6
		c0,0.4,0,0.7,0.1,0.8c0,0.1,0.1,0.2,0.2,0.3c0.1,0.1,0.3,0.1,0.6,0.1v0.2h-3.1v-0.2h0.1c0.3,0,0.5,0,0.6-0.1s0.2-0.2,0.2-0.4
		c0-0.1,0-0.3,0-0.6V22c0-0.6-0.1-1-0.2-1.2c-0.1-0.3-0.4-0.4-0.7-0.4c-0.5,0-1.1,0.3-1.6,0.9v3.3c0,0.4,0,0.7,0.1,0.8
		c0.1,0.1,0.1,0.2,0.3,0.3c0.1,0.1,0.3,0.1,0.7,0.1V26h-3.1v-0.2h0.1c0.3,0,0.5-0.1,0.6-0.2s0.2-0.5,0.2-0.9v-2.3
		c0-0.7,0-1.2-0.1-1.4c0-0.2-0.1-0.3-0.2-0.3s-0.2-0.1-0.3-0.1c-0.1,0-0.3,0-0.5,0.1l-0.1-0.2l1.9-0.8h0.3v1.1
		C105.1,20.8,105.3,20.8,105.3,20.8z"/>
	<path class="st0" d="M112,23.6c-0.4-0.2-0.7-0.4-0.9-0.8c-0.2-0.3-0.3-0.7-0.3-1.1c0-0.6,0.2-1.1,0.7-1.6c0.5-0.4,1.1-0.7,1.8-0.7
		c0.6,0,1.1,0.1,1.5,0.4h1.3c0.2,0,0.3,0,0.3,0s0.1,0,0.1,0.1c0,0,0,0.1,0,0.2s0,0.2,0,0.2s0,0-0.1,0.1c0,0-0.1,0-0.3,0h-0.8
		c0.3,0.3,0.4,0.7,0.4,1.2c0,0.6-0.2,1.1-0.7,1.5c-0.4,0.4-1,0.6-1.8,0.6c-0.3,0-0.6,0-0.9-0.1c-0.2,0.2-0.3,0.3-0.4,0.4
		s-0.1,0.2-0.1,0.3c0,0.1,0,0.2,0.1,0.2c0.1,0.1,0.2,0.1,0.4,0.2c0.1,0,0.4,0,0.9,0c0.9,0,1.5,0.1,1.8,0.1c0.4,0.1,0.8,0.2,1,0.5
		s0.4,0.6,0.4,0.9c0,0.5-0.2,1-0.7,1.4c-0.7,0.7-1.6,1-2.7,1c-0.9,0-1.6-0.2-2.2-0.6c-0.3-0.2-0.5-0.5-0.5-0.7c0-0.1,0-0.2,0.1-0.3
		c0.1-0.2,0.2-0.4,0.5-0.7c0,0,0.3-0.3,0.7-0.7c-0.2-0.1-0.4-0.3-0.5-0.4S111,25,111,24.8c0-0.2,0.1-0.3,0.2-0.6S111.6,24,112,23.6z
		 M112,25.9c-0.2,0.2-0.4,0.4-0.5,0.6s-0.2,0.4-0.2,0.5c0,0.2,0.1,0.4,0.4,0.6c0.5,0.3,1.1,0.4,2,0.4c0.8,0,1.4-0.1,1.8-0.4
		s0.6-0.6,0.6-0.9c0-0.2-0.1-0.4-0.3-0.5c-0.2-0.1-0.7-0.2-1.4-0.2C113.3,26,112.5,25.9,112,25.9z M113.2,19.8
		c-0.3,0-0.6,0.1-0.8,0.4c-0.2,0.3-0.3,0.7-0.3,1.2c0,0.7,0.2,1.3,0.5,1.7c0.2,0.3,0.5,0.4,0.9,0.4c0.3,0,0.6-0.1,0.8-0.4
		c0.2-0.3,0.3-0.7,0.3-1.2c0-0.7-0.2-1.3-0.5-1.7C113.8,20,113.6,19.8,113.2,19.8z"/>
	<path class="st0" d="M118.3,22c0,0.9,0.2,1.6,0.7,2.2c0.5,0.5,1,0.8,1.6,0.8c0.4,0,0.8-0.1,1.1-0.3c0.3-0.2,0.6-0.6,0.8-1.1
		l0.2,0.1c-0.1,0.6-0.4,1.2-0.8,1.7c-0.5,0.5-1,0.8-1.7,0.8s-1.4-0.3-1.9-0.9s-0.8-1.4-0.8-2.3c0-1.1,0.3-1.9,0.8-2.5s1.2-0.9,2-0.9
		c0.7,0,1.3,0.2,1.7,0.7s0.7,1.1,0.7,1.8h-4.4L118.3,22L118.3,22z M118.3,21.6h2.9c0-0.4-0.1-0.7-0.1-0.8c-0.1-0.3-0.3-0.5-0.5-0.6
		s-0.5-0.2-0.7-0.2c-0.4,0-0.7,0.1-1,0.4C118.5,20.7,118.4,21.1,118.3,21.6z"/>
</g>
<path class="st0" d="M25,0.3H14.9C6.7,0.3,0,7,0,15.3v10.1c0,8.2,6.7,14.9,14.9,14.9H25c8.2,0,15-6.7,15-14.9V15.3
	C40,7,33.3,0.3,25,0.3z M10.7,29.2h-2V11.5h2V29.2z M22.8,29.2h-8.7V12.4h8.4v1.8h-6.4v5.3h6v1.8h-6v6h6.7
	C22.8,27.3,22.8,29.2,22.8,29.2z M31.8,29.2l-1.6-2.7c-0.4-0.7-0.8-1.4-1.2-2.1l0,0c-0.4,0.7-0.8,1.4-1.2,2.1l-1.6,2.7H24l4-6.2
	l-3.8-5.9h2.2l1.6,2.6c0.4,0.7,0.8,1.3,1.1,2h0.1c0.4-0.7,0.7-1.4,1.1-2l1.6-2.6h2.2L30.2,23l3.9,6.2H31.8z"/>
<path class="st0" d="M53.1,18c-0.6,0-1-0.2-1.4-0.5c-0.4-0.4-0.5-0.8-0.5-1.3s0.2-0.9,0.5-1.3c0.4-0.4,0.8-0.5,1.4-0.5
	s1,0.2,1.4,0.5c0.4,0.4,0.6,0.8,0.6,1.3s-0.2,0.9-0.6,1.3C54.1,17.9,53.7,18,53.1,18z"/>
<path class="st1" d="M126.4,28.4c-0.5,0-0.9-0.1-1.3-0.5c-0.4-0.4-0.5-0.7-0.5-1.2c0-0.5,0.1-0.9,0.5-1.2c0.4-0.4,0.8-0.5,1.3-0.5
	c0.5,0,0.9,0.1,1.3,0.5c0.4,0.4,0.5,0.7,0.5,1.2c0,0.5-0.1,0.8-0.5,1.2C127.3,28.2,126.8,28.4,126.4,28.4z"/>
</svg>
